<svg width="497" height="94" viewBox="0 0 497 94" fill="none" xmlns="http://www.w3.org/2000/svg">
<path fill-rule="evenodd" clip-rule="evenodd" d="M222.393 94.0001L215.563 81.9788L215.623 94.0001H213.3V77.0801H215.434L222.263 89.1013L222.203 77.0801H224.527V94.0001H222.393ZM231.927 78.1357C227.008 78.1357 226.037 81.7019 226.037 86.0143C226.037 90.3267 227.008 93.8929 231.927 93.8929C236.847 93.8929 237.817 90.3267 237.817 86.0143C237.817 81.7019 236.847 78.1357 231.927 78.1357ZM231.927 91.8287C229.036 91.8287 228.385 89.6386 228.385 86.0143C228.385 82.3803 229.036 80.1999 231.927 80.1999C234.819 80.1999 235.478 82.3706 235.478 86.0143C235.478 89.658 234.819 91.8287 231.927 91.8287ZM249.833 91.5483H243.186V78.3786H240.906V93.6415H249.833V91.5483ZM261.04 86.7902H254.685V91.5483H261.69V93.6415H252.395V78.3786H261.69V80.4815H254.685V84.6873H261.04V86.7902ZM270.804 78.1372C266.195 78.1372 264.526 81.1704 264.526 86.0158L264.477 86.0836C264.477 90.8805 266.146 93.9622 270.697 93.9622C272.366 93.9987 274.022 93.6678 275.548 92.9931V85.2405H270.561V87.2949H273.268V91.4716C272.559 91.6752 271.823 91.77 271.085 91.7527C267.99 91.7527 266.874 89.6401 266.874 86.0158C266.874 82.3914 267.951 80.2789 271.085 80.2789C272.497 80.2854 273.893 80.5892 275.18 81.1704V78.9319C273.798 78.3449 272.303 78.0734 270.804 78.1372ZM278.608 86.0154C278.608 81.17 280.286 78.1368 284.885 78.1368C286.388 78.0745 287.886 78.3459 289.271 78.9315V81.17C287.981 80.5889 286.582 80.2851 285.167 80.2785C282.033 80.2785 280.956 82.3911 280.956 86.0154C280.956 89.6397 282.072 91.7523 285.167 91.7523C285.905 91.7696 286.641 91.6748 287.35 91.4713V87.2946H284.643V85.2401H289.63V92.9927C288.119 93.6605 286.48 93.9912 284.827 93.9618C280.286 93.9618 278.608 90.8801 278.608 86.0832V86.0154ZM295.498 78.3786H293.218V93.6415H295.498V78.3786ZM304.817 78.1357C299.898 78.1357 298.928 81.7019 298.928 86.0143C298.928 90.3267 299.898 93.8929 304.817 93.8929C309.737 93.8929 310.707 90.3267 310.707 86.0143C310.707 81.7019 309.737 78.1357 304.817 78.1357ZM304.817 91.8287C301.926 91.8287 301.266 89.6386 301.266 86.0143C301.266 82.3803 301.926 80.1999 304.817 80.1999C307.709 80.1999 308.359 82.3706 308.359 86.0143C308.359 89.658 307.709 91.8287 304.817 91.8287ZM326.415 89.9208H321.563L320.447 93.642H317.953L322.805 78.195H325.124L329.976 93.642H327.492L326.415 89.9208ZM323.969 81.2961L322.029 88.0796H325.91L323.969 81.2961ZM339.716 91.5483H346.353V93.6415H337.436V78.3786H339.716V91.5483ZM348.826 78.3786V88.8446C348.826 93.1182 352.29 93.8935 354.366 93.8935C356.442 93.8935 359.907 93.1182 359.907 88.8446V78.3786H357.626V88.6411C357.626 91.5095 355.627 91.81 354.366 91.81C353.105 91.81 351.106 91.5483 351.106 88.6411V78.3786H348.826ZM371.95 93.6415L365.303 82.7976L365.371 93.6415H363.101V78.3786H365.187L371.824 89.2225L371.765 78.3786H374.026V93.6415H371.95ZM383.401 78.1374C378.802 78.1374 377.133 81.1706 377.133 86.016L377.094 86.0838C377.094 90.8807 378.763 93.9624 383.304 93.9624C384.973 93.9982 386.629 93.6674 388.156 92.9933V85.2407H383.158V87.2952H385.866V91.4719C385.159 91.6749 384.427 91.7696 383.692 91.7529C380.597 91.7529 379.471 89.6403 379.471 86.016C379.471 82.3916 380.548 80.2791 383.692 80.2791C385.104 80.2868 386.499 80.5905 387.787 81.1706V78.9321C386.402 78.3443 384.904 78.0728 383.401 78.1374ZM397.099 78.1357C392.179 78.1357 391.209 81.7019 391.209 86.0143C391.209 90.3267 392.179 93.8929 397.099 93.8929C402.018 93.8929 402.989 90.3267 402.989 86.0143C402.989 81.7019 402.018 78.1357 397.099 78.1357ZM397.099 91.8287C394.198 91.8287 393.548 89.6386 393.548 86.0143C393.548 82.3803 394.207 80.1999 397.099 80.1999C399.99 80.1999 400.641 82.3706 400.641 86.0143C400.641 89.658 400 91.8287 397.099 91.8287ZM415.922 93.6415V80.4718H419.891V78.3786H409.664V80.4718H413.642V93.6415H415.922ZM431.143 86.7902H424.788V91.5483H431.803V93.6415H422.508V78.3786H431.803V80.4815H424.788V84.6873H431.143V86.7902ZM437.114 93.6415H434.834V78.3786H439.792C443.751 78.3786 445.012 80.152 445.012 82.9236C445.012 84.8617 444.401 86.3347 442.528 86.9937L445.721 93.6415H443.052L440.287 87.4394H437.104L437.114 93.6415ZM437.114 85.3656H440.132C442.247 85.3656 442.538 84.164 442.538 82.9236C442.538 81.6832 442.247 80.4815 440.132 80.4815H437.114V85.3656ZM456.452 91.5483H454.289L450.475 82.1677L450.582 93.6415H448.302V78.3786H451.232L455.366 88.7768L459.509 78.3786H462.439V93.6415H460.159L460.256 82.1677L456.452 91.5483ZM468.351 78.3786H466.071V93.6415H468.351V78.3786ZM480.819 93.6415L474.172 82.7976L474.24 93.6415H471.979V78.3786H474.056L480.693 89.2225L480.634 78.3786H482.895V93.6415H480.819ZM488.489 86.7902H494.844V84.6873H488.489V80.4815H495.494V78.3786H486.209V93.6415H495.494V91.5483H488.489V86.7902Z" fill="#0050B4"/>
<path fill-rule="evenodd" clip-rule="evenodd" d="M41.8767 0.648438C38.5693 0.659076 35.8908 3.33416 35.8801 6.6373V48.3074C35.8801 52.7554 35.8801 58.754 29.8836 64.0645C21.6941 71.3229 10.914 67.7567 10.6326 67.6598C14.64 69.5092 19.0068 70.4522 23.4213 70.4216C28.8939 70.4216 46.7088 68.8905 46.7088 49.102V0.648438H41.8767ZM191.655 63.4831V0.648438H196.507C199.813 0.653754 202.493 3.32605 202.503 6.62761V69.4719H197.652C194.345 69.4613 191.666 66.7862 191.655 63.4831ZM97.2737 20.2817C101.025 20.2817 104.066 17.2446 104.066 13.4982C104.066 9.75176 101.025 6.71468 97.2737 6.71468C93.5224 6.71468 90.4815 9.75176 90.4815 13.4982C90.5079 17.2336 93.5334 20.2553 97.2737 20.2817ZM61.7979 28.1117C65.0764 26.4719 68.6883 25.6066 72.3549 25.5824H72.3646C82.3394 25.5824 87.3948 30.2727 87.3948 39.508V69.4523H76.5467V40.322C76.5467 36.5911 74.8292 34.9921 70.7927 34.9921C67.7529 34.9341 64.7481 35.6476 62.0599 37.0659V69.4717H51.2118V23.8769H56.0633C58.6959 23.8858 61.0179 25.6006 61.7979 28.1117ZM168.679 70.4702C151.699 70.4702 149.515 58.4731 149.515 48.0265C149.515 37.5799 151.699 25.5828 168.679 25.5828C185.66 25.5828 187.833 37.5799 187.833 48.0265C187.833 58.4731 185.66 70.4702 168.679 70.4702ZM168.679 34.9343C161.635 34.9343 160.441 38.9753 160.441 48.0265C160.441 57.0776 161.635 61.1283 168.679 61.1283C175.724 61.1283 176.907 57.0873 176.907 48.0265C176.907 38.9657 175.714 34.9343 168.679 34.9343ZM117.725 28.0245C121.009 26.3712 124.643 25.5334 128.321 25.5824C140.023 25.5824 145.66 32.928 145.66 48.0262C145.66 63.1243 139.964 70.4699 128.321 70.4699C124.725 70.4445 121.19 69.5394 118.026 67.834V93.6501H107.178V23.8769H112.029C114.626 23.8844 116.924 25.5577 117.725 28.0245ZM118.026 58.967C120.518 60.3476 123.326 61.0619 126.176 61.0408V61.0214C133.298 61.0214 134.734 56.0404 134.734 48.0068C134.734 39.9732 133.298 34.9921 126.176 34.9921C123.326 34.9754 120.52 35.6894 118.026 37.0659V58.967ZM102.715 23.9247V69.4711L97.8733 69.5195C94.5644 69.5089 91.8831 66.8354 91.8671 63.5307V23.9247H102.715ZM10.9742 48.3361C10.9742 56.486 15.0496 60.4398 23.4234 60.4398C28.2846 60.4398 31.6905 59.1122 33.699 56.4085C26.5284 69.7817 10.1301 66.419 7.50052 65.7794C3.36698 62.7365 0.126129 57.5714 0.126129 49.1695V6.63692V0.677124H4.9777C8.28508 0.687762 10.9636 3.36285 10.9742 6.66599V48.3361Z" fill="#0F3250"/>
<path fill-rule="evenodd" clip-rule="evenodd" d="M221.623 69.4733H212.036L219.906 5.36914H240.796C257.379 5.36914 261.765 12.8407 260.29 24.4696C259.262 32.7648 256.011 38.8312 247.792 41.564L257.806 69.512H246.609L238.138 43.444H224.786L221.623 69.4733ZM225.815 34.6836H238.429C247.336 34.6836 249.219 29.6444 249.82 24.4308C250.422 19.2172 249.898 14.178 241 14.178H228.386L225.815 34.6836ZM273.557 51.6035C272.965 58.0091 274.76 62.2052 283.493 62.2052C288.265 62.2693 293.002 61.3968 297.437 59.6371L296.408 67.8452C291.483 69.671 286.262 70.5681 281.009 70.4908C266.716 70.4908 262.573 61.9435 264.32 48.0955C266.066 34.2475 272.082 25.7002 286.229 25.7002C298.844 25.7002 302.919 31.6019 301.978 38.9475C301.036 46.293 295.642 51.6035 283.057 51.6035H273.557ZM283.745 44.9363C288.801 44.9363 292.129 43.3083 292.643 39.4611C293.158 35.6138 290.082 33.9955 285.026 33.9955C278.011 33.9955 275.527 38.5211 274.421 44.9363H283.745ZM331.118 69.4731L334.708 40.1587C335.222 35.7978 333.252 33.8306 328.721 33.8306C325.162 33.7991 321.651 34.6516 318.504 36.3114L314.477 69.4731H304.919L310.149 26.737H315.797L316.903 30.1578C321.179 27.3491 326.165 25.807 331.283 25.7098C342.15 25.7098 345.41 31.0978 344.382 39.2768L340.695 69.444L331.118 69.4731ZM367.108 70.4994C368.918 70.4677 370.721 70.2665 372.493 69.8986L373.434 62.0394C372.191 62.259 370.932 62.3725 369.67 62.3786C364.789 62.3786 362.906 60.3339 363.421 56.0603L365.992 34.857H378.063L379.082 26.7361H367.021L368.563 13.8087L358.744 16.5803L357.463 26.7555L349.419 28.9747L348.643 34.8763H356.405L353.669 57.165C352.553 66.4003 357.609 70.4994 367.108 70.4994ZM410.152 69.4731H415.8L420.952 26.737H415.305L413.364 30.1578C409.584 27.1384 404.851 25.5616 400.013 25.7098C387.554 25.7098 381.916 34.0826 380.199 48.1051C378.481 62.1275 382.081 70.5003 394.579 70.5003C399.715 70.5335 404.737 68.9836 408.959 66.062L410.152 69.4731ZM401.342 33.8306C404.484 33.7943 407.571 34.655 410.24 36.3115L407.329 59.9084C404.422 61.5191 401.154 62.3692 397.829 62.3795C389.446 62.3795 388.854 56.0515 389.873 48.1051C390.892 40.1587 392.949 33.8306 401.342 33.8306ZM432.227 5.36914L425.639 58.9588L425.61 58.9395C424.668 66.2947 427.773 70.0547 435.536 70.0547C436.167 70.0533 436.797 69.9949 437.418 69.8803L438.389 62.1277C435.652 62.1277 434.886 61.2749 435.225 58.8813L441.814 5.36914H432.227Z" fill="#0050B4"/>
</svg>
